<?xml version="1.0" encoding="UTF-8"?>
<svg id="Layer_1" data-name="Layer 1" xmlns="http://www.w3.org/2000/svg" viewBox="0 0 48 48">
  <defs>
    <style>
      .cls-1 {
        fill: #ed1e24;
      }

      .cls-2 {
        fill: #faf8f6;
      }
    </style>
  </defs>
  <g id="favion">
    <circle class="cls-1" cx="24" cy="24" r="24"/>
    <path class="cls-2" d="m19.6,36.55l1.94-9.18-4.08-11.05q-.74-1.98-2.1-3.81h8.6c-2.33,1.28-3.03,1.67-3.03,2.29,0,.27.16.62.27,1.05l3.73,10.07,7.82-9.8c.51-.66.86-1.13.86-1.52,0-.54-.66-1.01-2.26-2.1h6.57q-1.94,1.67-3.58,3.73l-8.91,11.12-1.98,9.45c-.23,1.01-.27,1.01,2.26,2.92h-9.65c3.23-1.94,3.31-1.91,3.54-3.19Z"/>
  </g>
</svg>