<svg xmlns="http://www.w3.org/2000/svg" width="1334" height="661.323" viewBox="0 0 1334 661.323">
  <g id="Group_1" data-name="Group 1" transform="translate(-552.6 -316.8)">
    <path id="Path_1" data-name="Path 1" d="M24.181,453.962H211.3c-49.044-36.971-48.289-36.971-43.762-56.589l38.48-183.348L378.8-1.766c31.69-39.989,31.69-39.989,69.416-72.434H320.706c30.935,21.126,43.762,30.181,43.762,40.744,0,7.545-6.791,16.6-16.6,29.426L196.211,186.108,123.778-9.312c-2.264-8.3-5.282-15.09-5.282-20.372,0-12.072,13.581-19.617,58.852-44.517H10.6C37.008-38.738,37.008-38.738,51.344-.257l79.224,214.283L92.842,392.091C88.315,416.991,86.806,416.236,24.181,453.962Z" transform="translate(542 391)" fill="#fe0000"/>
    <path id="Path_2" data-name="Path 2" d="M263.075,28.811,220.366,230.964c-18.507,31.32-46.268,45.556-76.875,45.556-50.538,0-77.587-39.149-64.775-99.653L127.119-50.2,5.4-13.9C45.973,7.456,45.973,7.456,41.7,28.811l-31.32,150.9C-5.277,251.607,24.619,317.8,106.477,317.8c46.979,0,85.417-23.49,110.33-71.893L201.859,317.8l118.872-27.049c-39.861-23.49-39.861-23.49-35.59-44.132L348.492-50.2,226.772-13.9C266.634,7.456,266.634,7.456,263.075,28.811Zm7.118,406.443H391.2L668.805,25.963C690.872-6.78,690.872-6.78,722.9-39.523H616.132C661.687-8.2,661.687-8.2,641.045,23.116L521.461,202.492,474.482,19.557C467.364-8.2,467.364-8.2,523.6-39.523H382.659c15.66,31.32,15.66,31.32,25.625,68.334l66.91,250.557L373.4,367.632C340.662,395.392,325,406.069,270.193,435.253ZM932.886,317.8c36.3,0,63.351-19.219,77.587-66.2-10.677,14.948-23.49,22.066-39.861,22.066-22.066,0-29.184-17.083-24.2-39.861l28.472-132.4C995.526,6.745,945.7-50.2,860.282-50.2c-63.351,0-123.855,32.743-149.48,106.771,27.049-45.556,71.181-66.91,113.889-66.91,71.181,0,94.671,51.962,80.434,117.448l-2.847,13.524-58.368,5.694c-105.348,10.677-163,51.962-163,113.178,0,46.268,36.3,78.3,90.4,78.3,46.979,0,85.417-27.049,103.924-69.757C869.536,288.621,893.737,317.8,932.886,317.8ZM749.24,223.846c0-49.827,42.708-79.011,100.365-83.993l49.115-4.271-20.642,96.094c-19.219,37.014-50.538,45.556-72.6,45.556C770.594,277.232,749.24,255.878,749.24,223.846Z" transform="translate(876.127 542.87)" fill="#fe0000"/>
  </g>
</svg>
